<svg class="diagram-root" style="background: #f5f6f6" xmlns="http://www.w3.org/2000/svg" xmlns:xlink="http://www.w3.org/1999/xlink"><style>.diagram-root { font-family: "Helvetica Neue", sans-serif; font-size: 12px; } .t { overflow: visible; } .t-bg { y: 40; fill: #fff;   } .th { fill: #005aa0;   } .tht { fill: #fff; font-size: 14px;  } .tf { fill: #323c46; overflow: visible; } .tf.pk { fill: #005aa0; font-weight: bold; } .tf.fk { font-weight: bold; } .ty { fill: #adb1b5; font-weight: normal; text-anchor: end; } .r { fill: transparent; stroke: #c3c3c3; stroke-width: 1; } .l { stroke: 1; } .i { fill: #c2c7ce; stroke: #c2c7ce; } .i.ix { fill: #afb3b6; stroke: #000; } .fa { fill: transparent; overflow: visible; } .fa .bg.hover { fill: #f7f7f7; } .c { cy: 12; r: 4; stroke: #d2d2dc; fill: #d2d2dc; } .hr { fill: transparent; stroke: #323c46; stroke-opacity: 0.035; stroke-width: 13; } .dc { stroke: #fa5a3c; fill: #fa5a3c; } .x { stroke: white; stroke-width: 1; } .hl .th { fill: #1b9bff; } .hl .tht {  } .fhl .bg { fill: #e7f4ff; } .fhls .bg {  } .r.hl { stroke: #1b9bff; } .dim { opacity: 0.25; }</style><g class="drawing-wrapper" transform="translate(-101.33333333333327, -20.833333333333243) scale(1,1)"><g class="rs"><path d="M 575.66 136.84 m -1, 0 a 1,1 0 1,0 2,0 a 1,1 0 1,0 -2,0 M 575.66 136.84 m -0.5, 0 a 0.5,0.5 0 1,0 1,0 a 0.5,0.5 0 1,0 -1,0  M575.66 136.84 L575.66 136.84 563.66 136.84 M 575.66 142.84 m -1, 0 a 1,1 0 1,0 2,0 a 1,1 0 1,0 -2,0 M 575.66 142.84 m -0.5, 0 a 0.5,0.5 0 1,0 1,0 a 0.5,0.5 0 1,0 -1,0  M575.66 142.84 L575.66 142.84 568.66 136.84 575.66 130.84 M 575.66 130.84 m -1, 0 a 1,1 0 1,0 2,0 a 1,1 0 1,0 -2,0 M 575.66 130.84 m -0.5, 0 a 0.5,0.5 0 1,0 1,0 a 0.5,0.5 0 1,0 -1,0  M563.66 136.84 Q 501.6 136.84, 439.53 122.34 T 315.39 107.83 M 303.39 107.83 m -1, 0 a 1,1 0 1,0 2,0 a 1,1 0 1,0 -2,0 M 303.39 107.83 m -0.5, 0 a 0.5,0.5 0 1,0 1,0 a 0.5,0.5 0 1,0 -1,0  M303.39 107.83 L303.39 107.83 315.39 107.83 M309.39 113.83 L309.39 113.83 309.39 101.83" id="h575688064" class="r"></path><path d="M 705.63 161.84 m -1, 0 a 1,1 0 1,0 2,0 a 1,1 0 1,0 -2,0 M 705.63 161.84 m -0.5, 0 a 0.5,0.5 0 1,0 1,0 a 0.5,0.5 0 1,0 -1,0  M705.63 161.84 L705.63 161.84 717.63 161.84 M 705.63 167.84 m -1, 0 a 1,1 0 1,0 2,0 a 1,1 0 1,0 -2,0 M 705.63 167.84 m -0.5, 0 a 0.5,0.5 0 1,0 1,0 a 0.5,0.5 0 1,0 -1,0  M705.63 167.84 L705.63 167.84 712.63 161.84 705.63 155.84 M 705.63 155.84 m -1, 0 a 1,1 0 1,0 2,0 a 1,1 0 1,0 -2,0 M 705.63 155.84 m -0.5, 0 a 0.5,0.5 0 1,0 1,0 a 0.5,0.5 0 1,0 -1,0  M717.63 161.84 C 767.63 161.84, 875.12 107.83, 538.48 107.83 M 526.48 107.83 m -1, 0 a 1,1 0 1,0 2,0 a 1,1 0 1,0 -2,0 M 526.48 107.83 m -0.5, 0 a 0.5,0.5 0 1,0 1,0 a 0.5,0.5 0 1,0 -1,0  M526.48 107.83 L526.48 107.83 538.48 107.83 M532.48 113.83 L532.48 113.83 532.48 101.83" id="h1987201853" class="r"></path><path d="M 518.72 337.83000000000004 m -1, 0 a 1,1 0 1,0 2,0 a 1,1 0 1,0 -2,0 M 518.72 337.83000000000004 m -0.5, 0 a 0.5,0.5 0 1,0 1,0 a 0.5,0.5 0 1,0 -1,0  M518.72 337.83000000000004 L518.72 337.83000000000004 530.72 337.83000000000004 M 518.72 343.83000000000004 m -1, 0 a 1,1 0 1,0 2,0 a 1,1 0 1,0 -2,0 M 518.72 343.83000000000004 m -0.5, 0 a 0.5,0.5 0 1,0 1,0 a 0.5,0.5 0 1,0 -1,0  M518.72 343.83000000000004 L518.72 343.83000000000004 525.72 337.83000000000004 518.72 331.83000000000004 M 518.72 331.83000000000004 m -1, 0 a 1,1 0 1,0 2,0 a 1,1 0 1,0 -2,0 M 518.72 331.83000000000004 m -0.5, 0 a 0.5,0.5 0 1,0 1,0 a 0.5,0.5 0 1,0 -1,0  M530.72 337.83000000000004 C 580.72 337.83000000000004, 703.114 305.33000000000004, 326.73 305.33000000000004 M 314.73 305.33000000000004 m -1, 0 a 1,1 0 1,0 2,0 a 1,1 0 1,0 -2,0 M 314.73 305.33000000000004 m -0.5, 0 a 0.5,0.5 0 1,0 1,0 a 0.5,0.5 0 1,0 -1,0  M314.73 305.33000000000004 L314.73 305.33000000000004 326.73 305.33000000000004 M320.73 311.33000000000004 L320.73 311.33000000000004 320.73 299.33000000000004" id="h3314423997" class="r"></path><path d="M 622.49 339.5 m -1, 0 a 1,1 0 1,0 2,0 a 1,1 0 1,0 -2,0 M 622.49 339.5 m -0.5, 0 a 0.5,0.5 0 1,0 1,0 a 0.5,0.5 0 1,0 -1,0  M622.49 339.5 L622.49 339.5 610.49 339.5 M 622.49 345.5 m -1, 0 a 1,1 0 1,0 2,0 a 1,1 0 1,0 -2,0 M 622.49 345.5 m -0.5, 0 a 0.5,0.5 0 1,0 1,0 a 0.5,0.5 0 1,0 -1,0  M622.49 345.5 L622.49 345.5 615.49 339.5 622.49 333.5 M 622.49 333.5 m -1, 0 a 1,1 0 1,0 2,0 a 1,1 0 1,0 -2,0 M 622.49 333.5 m -0.5, 0 a 0.5,0.5 0 1,0 1,0 a 0.5,0.5 0 1,0 -1,0  M610.49 339.5 Q 590.55 339.5, 570.61 326.17 T 530.72 312.83000000000004 M 518.72 312.83000000000004 m -1, 0 a 1,1 0 1,0 2,0 a 1,1 0 1,0 -2,0 M 518.72 312.83000000000004 m -0.5, 0 a 0.5,0.5 0 1,0 1,0 a 0.5,0.5 0 1,0 -1,0  M518.72 312.83000000000004 L518.72 312.83000000000004 530.72 312.83000000000004 M524.72 318.83000000000004 L524.72 318.83000000000004 524.72 306.83000000000004" id="h3102058914" class="r"></path><path d="M 622.49 364.5 m -1, 0 a 1,1 0 1,0 2,0 a 1,1 0 1,0 -2,0 M 622.49 364.5 m -0.5, 0 a 0.5,0.5 0 1,0 1,0 a 0.5,0.5 0 1,0 -1,0  M622.49 364.5 L622.49 364.5 610.49 364.5 M 622.49 370.5 m -1, 0 a 1,1 0 1,0 2,0 a 1,1 0 1,0 -2,0 M 622.49 370.5 m -0.5, 0 a 0.5,0.5 0 1,0 1,0 a 0.5,0.5 0 1,0 -1,0  M622.49 370.5 L622.49 370.5 615.49 364.5 622.49 358.5 M 622.49 358.5 m -1, 0 a 1,1 0 1,0 2,0 a 1,1 0 1,0 -2,0 M 622.49 358.5 m -0.5, 0 a 0.5,0.5 0 1,0 1,0 a 0.5,0.5 0 1,0 -1,0  M610.49 364.5 Q 592.49 364.5, 574.49 236.17 T 538.48 107.83 M 526.48 107.83 m -1, 0 a 1,1 0 1,0 2,0 a 1,1 0 1,0 -2,0 M 526.48 107.83 m -0.5, 0 a 0.5,0.5 0 1,0 1,0 a 0.5,0.5 0 1,0 -1,0  M526.48 107.83 L526.48 107.83 538.48 107.83 M532.48 113.83 L532.48 113.83 532.48 101.83" id="h2716444368" class="r"></path><path d="M 622.49 389.5 m -1, 0 a 1,1 0 1,0 2,0 a 1,1 0 1,0 -2,0 M 622.49 389.5 m -0.5, 0 a 0.5,0.5 0 1,0 1,0 a 0.5,0.5 0 1,0 -1,0  M622.49 389.5 L622.49 389.5 610.49 389.5 M 622.49 395.5 m -1, 0 a 1,1 0 1,0 2,0 a 1,1 0 1,0 -2,0 M 622.49 395.5 m -0.5, 0 a 0.5,0.5 0 1,0 1,0 a 0.5,0.5 0 1,0 -1,0  M622.49 395.5 L622.49 395.5 615.49 389.5 622.49 383.5 M 622.49 383.5 m -1, 0 a 1,1 0 1,0 2,0 a 1,1 0 1,0 -2,0 M 622.49 383.5 m -0.5, 0 a 0.5,0.5 0 1,0 1,0 a 0.5,0.5 0 1,0 -1,0  M610.49 389.5 Q 536.72 389.5, 462.94 248.67 T 315.39 107.83 M 303.39 107.83 m -1, 0 a 1,1 0 1,0 2,0 a 1,1 0 1,0 -2,0 M 303.39 107.83 m -0.5, 0 a 0.5,0.5 0 1,0 1,0 a 0.5,0.5 0 1,0 -1,0  M303.39 107.83 L303.39 107.83 315.39 107.83 M 303.39 113.83 m -1, 0 a 1,1 0 1,0 2,0 a 1,1 0 1,0 -2,0 M 303.39 113.83 m -0.5, 0 a 0.5,0.5 0 1,0 1,0 a 0.5,0.5 0 1,0 -1,0  M303.39 113.83 L303.39 113.83 310.39 107.83 303.39 101.83 M 303.39 101.83 m -1, 0 a 1,1 0 1,0 2,0 a 1,1 0 1,0 -2,0 M 303.39 101.83 m -0.5, 0 a 0.5,0.5 0 1,0 1,0 a 0.5,0.5 0 1,0 -1,0 " id="h2067323405" class="r"></path></g><g class="hrs"></g><g class="ts"><svg width="180.06" height="150" x="123.33" y="50.83" id="h183022793" class="t"><rect height="40" width="180.06" class="th"></rect><text x="13" y="25" class="tht">Masters</text><rect height="110" width="180.06" class="t-bg" y="40"></rect><text x="13" y="61" class="tf pk">MasterID<tspan x="167.06" class="ty">int</tspan></text><path d="M7,14A2,2 0 0,1 5,12A2,2 0 0,1 7,10A2,2 0 0,1 9,12A2,2 0 0,1 7,14M12.65,10C11.83,7.67 9.61,6 7, 6A6, 6 0 0, 0 1, 12A6, 6 0 0, 0 7, 18C9.61, 18 11.83, 16.33 12.65, 14H17V18H21V14H23V10H12.65Z" class="i pk" transform="translate(134.386171875, 48) scale(0.65)"></path><text x="13" y="86" class="tf">Name<tspan x="167.06" class="ty">varchar(60)</tspan></text><text x="13" y="111" class="tf">SecondName<tspan x="167.06" class="ty">varchar(60)</tspan></text><text x="13" y="136" class="tf">Surname<tspan x="167.06" class="ty">varchar(60)</tspan></text></svg><svg width="186.48" height="125" x="340" y="50.83" id="h1542804027" class="t"><rect height="40" width="186.48" class="th"></rect><text x="13" y="25" class="tht">Works</text><rect height="85" width="186.48" class="t-bg" y="40"></rect><text x="13" y="61" class="tf pk">WorkID<tspan x="173.48" class="ty">int</tspan></text><path d="M7,14A2,2 0 0,1 5,12A2,2 0 0,1 7,10A2,2 0 0,1 9,12A2,2 0 0,1 7,14M12.65,10C11.83,7.67 9.61,6 7, 6A6, 6 0 0, 0 1, 12A6, 6 0 0, 0 7, 18C9.61, 18 11.83, 16.33 12.65, 14H17V18H21V14H23V10H12.65Z" class="i pk" transform="translate(140.806171875, 48) scale(0.65)"></path><text x="13" y="86" class="tf">NameOfWork<tspan x="173.48" class="ty">varchar(100)</tspan></text><text x="13" y="111" class="tf">Cost<tspan x="173.48" class="ty">money</tspan></text></svg><svg width="129.97" height="125" x="575.66" y="54.84" id="h1806854602" class="t"><rect height="40" width="129.97" class="th"></rect><text x="13" y="25" class="tht">WorksOfMasters</text><rect height="85" width="129.97" class="t-bg" y="40"></rect><text x="13" y="61" class="tf pk">ID<tspan x="116.97" class="ty">int</tspan></text><path d="M7,14A2,2 0 0,1 5,12A2,2 0 0,1 7,10A2,2 0 0,1 9,12A2,2 0 0,1 7,14M12.65,10C11.83,7.67 9.61,6 7, 6A6, 6 0 0, 0 1, 12A6, 6 0 0, 0 7, 18C9.61, 18 11.83, 16.33 12.65, 14H17V18H21V14H23V10H12.65Z" class="i pk" transform="translate(84.296171875, 48) scale(0.65)"></path><text x="13" y="86" class="tf fk">MasterID<tspan x="116.97" class="ty">int</tspan></text><text x="13" y="111" class="tf fk">WorkID<tspan x="116.97" class="ty">int</tspan></text></svg><svg width="184.73" height="200" x="130" y="248.33" id="h1635255463" class="t"><rect height="40" width="184.73" class="th"></rect><text x="13" y="25" class="tht">Cars</text><rect height="160" width="184.73" class="t-bg" y="40"></rect><text x="13" y="61" class="tf pk">CarID<tspan x="171.73" class="ty">int</tspan></text><path d="M7,14A2,2 0 0,1 5,12A2,2 0 0,1 7,10A2,2 0 0,1 9,12A2,2 0 0,1 7,14M12.65,10C11.83,7.67 9.61,6 7, 6A6, 6 0 0, 0 1, 12A6, 6 0 0, 0 7, 18C9.61, 18 11.83, 16.33 12.65, 14H17V18H21V14H23V10H12.65Z" class="i pk" transform="translate(139.056171875, 48) scale(0.65)"></path><text x="13" y="86" class="tf">Brand<tspan x="171.73" class="ty">varchar(60)</tspan></text><text x="13" y="111" class="tf">Model<tspan x="171.73" class="ty">varchar(60)</tspan></text><text x="13" y="136" class="tf">ReleaseDate<tspan x="171.73" class="ty">date</tspan></text><text x="13" y="161" class="tf">Owner<tspan x="171.73" class="ty">varchar(150)</tspan></text><text x="13" y="186" class="tf">PhoneNumber<tspan x="171.73" class="ty">varchar(30)</tspan></text></svg><svg width="148.72" height="150" x="370" y="255.83" id="h2867058081" class="t"><rect height="40" width="148.72" class="th"></rect><text x="13" y="25" class="tht">CarVisit</text><rect height="110" width="148.72" class="t-bg" y="40"></rect><text x="13" y="61" class="tf fk">ID<tspan x="135.72" class="ty">int</tspan></text><text x="13" y="86" class="tf fk">CarID<tspan x="135.72" class="ty">int</tspan></text><text x="13" y="111" class="tf">Date<tspan x="135.72" class="ty">datetime</tspan></text><text x="13" y="136" class="tf">TotalAmount<tspan x="135.72" class="ty">money</tspan></text></svg><svg width="112.46" height="150" x="622.49" y="257.5" id="h2700677706" class="t"><rect height="40" width="112.46" class="th"></rect><text x="13" y="25" class="tht">CarWorks</text><rect height="110" width="112.46" class="t-bg" y="40"></rect><text x="13" y="61" class="tf pk">ID<tspan x="99.46" class="ty">int</tspan></text><path d="M7,14A2,2 0 0,1 5,12A2,2 0 0,1 7,10A2,2 0 0,1 9,12A2,2 0 0,1 7,14M12.65,10C11.83,7.67 9.61,6 7, 6A6, 6 0 0, 0 1, 12A6, 6 0 0, 0 7, 18C9.61, 18 11.83, 16.33 12.65, 14H17V18H21V14H23V10H12.65Z" class="i pk" transform="translate(66.786171875, 48) scale(0.65)"></path><text x="13" y="86" class="tf fk">CarVisitID<tspan x="99.46" class="ty">int</tspan></text><text x="13" y="111" class="tf fk">WorkID<tspan x="99.46" class="ty">int</tspan></text><text x="13" y="136" class="tf fk">MasterID<tspan x="99.46" class="ty">int</tspan></text></svg></g></g><text class="qdbd-link" x="10" y="20">www.quickdatabasediagrams.com</text></svg>